<?xml version="1.0" encoding="UTF-8" standalone="no"?>
<!-- Created with Inkscape (http://www.inkscape.org/) -->
<svg
   xmlns:dc="http://purl.org/dc/elements/1.1/"
   xmlns:cc="http://creativecommons.org/ns#"
   xmlns:rdf="http://www.w3.org/1999/02/22-rdf-syntax-ns#"
   xmlns:svg="http://www.w3.org/2000/svg"
   xmlns="http://www.w3.org/2000/svg"
   xmlns:xlink="http://www.w3.org/1999/xlink"
   xmlns:sodipodi="http://sodipodi.sourceforge.net/DTD/sodipodi-0.dtd"
   xmlns:inkscape="http://www.inkscape.org/namespaces/inkscape"
   width="1052.3622"
   height="744.09448"
   id="svg2"
   sodipodi:version="0.32"
   inkscape:version="0.46"
   sodipodi:docname="drawing.svg"
   inkscape:output_extension="org.inkscape.output.svg.inkscape"
   version="1.0">
  <defs
     id="defs4">
    <inkscape:perspective
       sodipodi:type="inkscape:persp3d"
       inkscape:vp_x="0 : 526.18109 : 1"
       inkscape:vp_y="0 : 1000 : 0"
       inkscape:vp_z="744.09448 : 526.18109 : 1"
       inkscape:persp3d-origin="372.04724 : 350.78739 : 1"
       id="perspective10" />
    <inkscape:perspective
       sodipodi:type="inkscape:persp3d"
       inkscape:vp_x="0 : 0.5 : 1"
       inkscape:vp_y="0 : 1000 : 0"
       inkscape:vp_z="1 : 0.5 : 1"
       inkscape:persp3d-origin="0.5 : 0.33333333 : 1"
       id="perspective2824" />
    <inkscape:perspective
       id="perspective2448"
       inkscape:persp3d-origin="372.04724 : 350.78739 : 1"
       inkscape:vp_z="744.09448 : 526.18109 : 1"
       inkscape:vp_y="0 : 1000 : 0"
       inkscape:vp_x="0 : 526.18109 : 1"
       sodipodi:type="inkscape:persp3d" />
    <inkscape:perspective
       id="perspective2503"
       inkscape:persp3d-origin="372.04724 : 350.78739 : 1"
       inkscape:vp_z="744.09448 : 526.18109 : 1"
       inkscape:vp_y="0 : 1000 : 0"
       inkscape:vp_x="0 : 526.18109 : 1"
       sodipodi:type="inkscape:persp3d" />
    <inkscape:perspective
       id="perspective2573"
       inkscape:persp3d-origin="372.04724 : 350.78739 : 1"
       inkscape:vp_z="744.09448 : 526.18109 : 1"
       inkscape:vp_y="0 : 1000 : 0"
       inkscape:vp_x="0 : 526.18109 : 1"
       sodipodi:type="inkscape:persp3d" />
  </defs>
  <sodipodi:namedview
     id="base"
     pagecolor="#ffffff"
     bordercolor="#666666"
     borderopacity="1.0"
     gridtolerance="10000"
     guidetolerance="10"
     objecttolerance="10"
     inkscape:pageopacity="0.0"
     inkscape:pageshadow="2"
     inkscape:zoom="0.98994949"
     inkscape:cx="540.69757"
     inkscape:cy="308.61649"
     inkscape:document-units="px"
     inkscape:current-layer="layer1"
     showgrid="false"
     inkscape:window-width="1590"
     inkscape:window-height="1121"
     inkscape:window-x="0"
     inkscape:window-y="26" />
  <metadata
     id="metadata7">
    <rdf:RDF>
      <cc:Work
         rdf:about="">
        <dc:format>image/svg+xml</dc:format>
        <dc:type
           rdf:resource="http://purl.org/dc/dcmitype/StillImage" />
      </cc:Work>
    </rdf:RDF>
  </metadata>
  <g
     inkscape:label="Layer 1"
     inkscape:groupmode="layer"
     id="layer1">
    <path
       style="fill:#000000;fill-opacity:1;stroke:#000000;stroke-width:0.75px;stroke-linecap:butt;stroke-linejoin:miter;stroke-opacity:1"
       d="M 347.56863,661.74036 C 344.4484,660.94806 341.36447,658.07244 339.53291,656.38321 C 337.70135,654.69399 334.96715,653.44038 336.25166,652.23142 C 336.25166,652.23142 337.08981,651.5859 337.39006,651.15999 C 337.61467,650.84138 338.10409,650.39156 337.85881,650.08857 C 337.85881,650.08857 336.88871,649.26145 336.72041,648.68232 C 336.55738,648.12132 336.43788,647.2587 336.92131,646.94124 C 337.9663,646.25504 338.77136,646.91012 339.73381,647.54392 L 342.47935,649.35196 C 342.47935,649.35196 344.0307,650.43997 344.89006,650.82517 C 345.59241,651.14 347.50501,650.8404 347.09988,651.49482 C 347.09988,651.49482 346.61834,652.51041 346.22935,652.90107 C 345.7836,653.34873 344.62752,653.27382 344.6222,653.90553 C 344.61395,654.88992 346.27181,654.98034 347.09988,655.51267 C 347.09988,655.51267 349.28453,656.39988 349.91238,657.32071 C 350.29709,657.88494 350.42033,658.65504 350.31416,659.32964 C 350.17901,660.18846 349.77099,661.13294 349.04185,661.60642 C 348.6283,661.87497 348.04656,661.86171 347.56863,661.74036 z"
       id="path2830"
       sodipodi:nodetypes="czsssssscsssssssss" />
    <path
       style="fill:#000000;fill-opacity:1;stroke:#000000;stroke-width:0.75px;stroke-linecap:butt;stroke-linejoin:miter;stroke-opacity:1"
       d="M 675.22488,382.36536 C 675.68568,378.06304 685.32635,373.08759 691.08292,369.77565 C 703.14614,362.83526 716.325,358.45872 730.1341,357.63341 C 748.20229,356.55355 765.50612,363.2302 778.06867,376.04781 C 786.85227,385.00974 794.35683,395.48151 801.01598,406.04997 C 807.27211,415.97883 806.05619,427.98038 804.67093,439.10062 C 799.18108,475.42755 767.83007,498.32441 736.84397,513.60141 C 732.3141,515.83477 727.16811,517.07478 722.19214,517.90107 C 719.65141,518.32297 715.64823,517.36078 718.80117,515.07325 C 743.89258,501.20172 761.13195,479.09218 772.11529,452.93602 C 777.30052,440.58771 778.48687,426.94032 777.08204,413.64045 C 774.74332,391.49952 768.41625,378.95959 744.60426,380.97855 C 727.94016,382.39145 711.63457,386.70977 695.67706,391.59519 C 693.25371,392.33711 690.64079,395.3319 688.61773,394.41892 C 683.8234,392.25529 674.81427,386.19912 675.22488,382.36536 z"
       id="path2836"
       sodipodi:nodetypes="csssscsscsssass" />
    <path
       style="fill:#000000;fill-opacity:1;stroke:#000000;stroke-width:0.75px;stroke-linecap:butt;stroke-linejoin:miter;stroke-opacity:1"
       d="M 360.1914,651.49482 C 361.55865,650.63264 362.76904,651.00909 363.80747,652.06401 C 364.2166,652.47963 364.06706,653.32529 363.77395,653.83857 C 360.28889,659.94141 351.90743,666.49117 345.1244,667.80062 C 343.43873,668.12604 342.82113,666.13782 343.75162,664.98812 C 348.15585,659.54634 354.15018,655.30437 360.1914,651.49482 L 360.1914,651.49482 z"
       id="path2838"
       sodipodi:nodetypes="csssss" />
    <image
       y="288.41879"
       x="-571.67383"
       id="image2505"
       height="151.20001"
       width="240"
       sodipodi:absref="/home/coudert/WindEEPP/wind_blowing_cloud.png"
       xlink:href="wind_blowing_cloud.png"
       transform="scale(-1,1)" />
    <image
       y="-295.76147"
       x="741.47943"
       id="image2579"
       height="240.00003"
       width="109.50002"
       sodipodi:absref="/home/coudert/WindEEPP/clipart-0083.png"
       xlink:href="clipart-0083.png"
       transform="matrix(0.5378741,0.8430252,-0.8430252,0.5378741,0,0)" />
    <path
       sodipodi:type="arc"
       style="opacity:1;fill:#00ff00;fill-opacity:1;fill-rule:evenodd;stroke:none;stroke-width:20;stroke-linecap:round;stroke-linejoin:round;stroke-miterlimit:4;stroke-dasharray:none;stroke-dashoffset:0;stroke-opacity:1"
       id="path2581"
       sodipodi:cx="91.428574"
       sodipodi:cy="508.07648"
       sodipodi:rx="45.714287"
       sodipodi:ry="47.142857"
       d="M 137.14286,508.07648 A 45.714287,47.142857 0 1 1 45.714287,508.07648 A 45.714287,47.142857 0 1 1 137.14286,508.07648 z"
       transform="matrix(0.9,0,0,0.9,282.37773,182.49703)" />
    <image
       y="-58.729038"
       x="693.11951"
       id="image2583"
       height="240"
       width="109.5"
       sodipodi:absref="/home/coudert/WindEEPP/clipart-0083.png"
       xlink:href="clipart-0083.png"
       transform="matrix(0.8005806,0.5992251,-0.5992251,0.8005806,0,0)" />
    <text
       xml:space="preserve"
       style="font-size:43.19999695px;font-style:normal;font-weight:normal;fill:#0000ff;fill-opacity:1;stroke:none;stroke-width:1px;stroke-linecap:butt;stroke-linejoin:miter;stroke-opacity:1;font-family:Bitstream Vera Sans"
       x="326.32681"
       y="657.31683"
       id="text2585"><tspan
         sodipodi:role="line"
         id="tspan2587"
         x="326.32681"
         y="657.31683">WD</tspan></text>
    <path
       sodipodi:type="arc"
       style="opacity:1;fill:#000000;fill-opacity:1;fill-rule:evenodd;stroke:none;stroke-width:20;stroke-linecap:round;stroke-linejoin:round;stroke-miterlimit:4;stroke-dasharray:none;stroke-dashoffset:0;stroke-opacity:1"
       id="path2589"
       sodipodi:cx="150.00766"
       sodipodi:cy="411.42038"
       sodipodi:rx="8.586297"
       sodipodi:ry="8.586297"
       d="M 158.59396,411.42038 A 8.586297,8.586297 0 1 1 141.42136,411.42038 A 8.586297,8.586297 0 1 1 158.59396,411.42038 z"
       transform="matrix(0.75,0,0,0.75,283.21257,300.37729)" />
    <path
       sodipodi:type="arc"
       style="opacity:1;fill:#000000;fill-opacity:1;fill-rule:evenodd;stroke:none;stroke-width:20;stroke-linecap:round;stroke-linejoin:round;stroke-miterlimit:4;stroke-dasharray:none;stroke-dashoffset:0;stroke-opacity:1"
       id="path3361"
       sodipodi:cx="150.00766"
       sodipodi:cy="411.42038"
       sodipodi:rx="8.586297"
       sodipodi:ry="8.586297"
       d="M 158.59396,411.42038 A 8.586297,8.586297 0 1 1 141.42136,411.42038 A 8.586297,8.586297 0 1 1 158.59396,411.42038 z"
       transform="matrix(0.75,0,0,0.75,294.95559,329.54545)" />
    <text
       xml:space="preserve"
       style="font-size:40px;font-style:normal;font-weight:normal;fill:#000000;fill-opacity:1;stroke:none;stroke-width:1px;stroke-linecap:butt;stroke-linejoin:miter;stroke-opacity:1;font-family:Bitstream Vera Sans"
       x="27.142857"
       y="61.237339"
       id="text3363"><tspan
         sodipodi:role="line"
         id="tspan3365"
         x="27.142857"
         y="61.237339"><tspan
   style="fill:#0000ff;fill-opacity:1"
   id="tspan3375">WindEEPP</tspan>* <tspan
   style="font-size:28px"
   id="tspan3371">du vent à l'électricité transportable</tspan></tspan><tspan
         sodipodi:role="line"
         x="27.142857"
         y="87.315361"
         id="tspan3393"
         style="font-size:16px;fill:#808080;fill-opacity:1"> WIND for creating Ecologic Electricity with Periodic Phases</tspan></text>
    <text
       xml:space="preserve"
       style="font-size:22.5px;font-style:normal;font-weight:normal;fill:#000000;fill-opacity:1;stroke:none;stroke-width:1px;stroke-linecap:butt;stroke-linejoin:miter;stroke-opacity:1;font-family:Bitstream Vera Sans"
       x="22.84354"
       y="726.05914"
       id="text3367"><tspan
         sodipodi:role="line"
         id="tspan3369"
         x="22.84354"
         y="726.05914"
         style="font-size:20px">* vous êtes libre de redéfinir l'acronyme et définir bien d'autres choses encore ...</tspan></text>
    <text
       xml:space="preserve"
       style="font-size:24px;font-style:normal;font-weight:normal;fill:#000000;fill-opacity:1;stroke:none;stroke-width:1px;stroke-linecap:butt;stroke-linejoin:miter;stroke-opacity:1;font-family:Bitstream Vera Sans"
       x="646.81653"
       y="615.66522"
       id="text3377"><tspan
         sodipodi:role="line"
         id="tspan3379"
         x="646.81653"
         y="615.66522">contacts:</tspan><tspan
         sodipodi:role="line"
         x="646.81653"
         y="645.66522"
         id="tspan3381">franck.kerherve@ec-lille.fr</tspan><tspan
         sodipodi:role="line"
         x="646.81653"
         y="675.66522"
         id="tspan3383">sebastien.coudert@univ-lille1.fr</tspan><tspan
         sodipodi:role="line"
         x="646.81653"
         y="701.67822"
         id="tspan2449"
         style="font-size:20px;fill:#808080;fill-opacity:1">https://github.com/coupdair/WindEEPP</tspan></text>
    <text
       xml:space="preserve"
       style="font-size:40px;font-style:normal;font-weight:normal;fill:#000000;fill-opacity:1;stroke:none;stroke-width:1px;stroke-linecap:butt;stroke-linejoin:miter;stroke-opacity:1;font-family:Bitstream Vera Sans"
       x="735.39105"
       y="640.04877"
       id="text3385"><tspan
         sodipodi:role="line"
         id="tspan3387"
         x="735.39105"
         y="640.04877" /></text>
    <text
       xml:space="preserve"
       style="font-size:24px;font-style:normal;font-weight:normal;fill:#000000;fill-opacity:1;stroke:none;stroke-width:1px;stroke-linecap:butt;stroke-linejoin:miter;stroke-opacity:1;font-family:Bitstream Vera Sans"
       x="19.1929"
       y="125.88112"
       id="text3389"><tspan
         sodipodi:role="line"
         id="tspan3391"
         x="19.1929"
         y="125.88112">- utiliser un cerf-volant de traction <tspan
   style="font-size:20px"
   id="tspan3437">(ex.: aile pliable en tissu)</tspan> facilement transportable.</tspan><tspan
         sodipodi:role="line"
         x="19.1929"
         y="155.88112"
         id="tspan3407">- 2 suspentes de traction/direction sont reliées à 2 moteurs/génératrices d'électricité.</tspan><tspan
         sodipodi:role="line"
         x="19.1929"
         y="185.88112"
         id="tspan3409">- controler le cerf-volant pendant les 2 phases:</tspan><tspan
         sodipodi:role="line"
         x="19.1929"
         y="215.88112"
         id="tspan3411"> 1. génération: trajectoire en 8 pour tirer sur les génératrices et produire du courant.</tspan><tspan
         sodipodi:role="line"
         x="19.1929"
         y="245.88112"
         id="tspan3433"> 2. consommation: position quasi-verticale pour enrouler les 2 suspentes.</tspan></text>
    <text
       xml:space="preserve"
       style="font-size:24px;font-style:normal;font-weight:normal;fill:#000000;fill-opacity:1;stroke:none;stroke-width:1px;stroke-linecap:butt;stroke-linejoin:miter;stroke-opacity:1;font-family:Bitstream Vera Sans"
       x="23.233534"
       y="459.23148"
       id="text3395"><tspan
         sodipodi:role="line"
         id="tspan3397"
         x="23.233534"
         y="459.23148">missions et objectifs</tspan><tspan
         sodipodi:role="line"
         x="23.233534"
         y="489.23148"
         id="tspan3399"> - définir la solution technique</tspan><tspan
         sodipodi:role="line"
         x="23.233534"
         y="519.23145"
         id="tspan3401"> - convaincre un partenaire</tspan><tspan
         sodipodi:role="line"
         x="23.233534"
         y="549.23151"
         id="tspan3403"> - réaliser un prototype</tspan><tspan
         sodipodi:role="line"
         x="23.233534"
         y="579.23151"
         id="tspan3405"> - libérer le concept</tspan></text>
    <text
       xml:space="preserve"
       style="font-size:24px;font-style:normal;font-weight:normal;fill:#808080;fill-opacity:1;stroke:none;stroke-width:1px;stroke-linecap:butt;stroke-linejoin:miter;stroke-opacity:1;font-family:Bitstream Vera Sans"
       x="720.23883"
       y="346.09439"
       id="text3415"><tspan
         sodipodi:role="line"
         id="tspan3417"
         x="720.23883"
         y="346.09439">écologie</tspan><tspan
         sodipodi:role="line"
         x="720.23883"
         y="376.09439"
         id="tspan3429">         éolien</tspan><tspan
         sodipodi:role="line"
         x="720.23883"
         y="406.09439"
         id="tspan3439">            mécanique</tspan><tspan
         sodipodi:role="line"
         x="720.23883"
         y="436.09439"
         id="tspan3419">             fluide</tspan><tspan
         sodipodi:role="line"
         x="720.23883"
         y="466.09439"
         id="tspan3421">            électricité</tspan><tspan
         sodipodi:role="line"
         x="720.23883"
         y="496.09439"
         id="tspan3427">          contrôle</tspan><tspan
         sodipodi:role="line"
         x="720.23883"
         y="526.09436"
         id="tspan3431">      vision</tspan><tspan
         sodipodi:role="line"
         x="720.23883"
         y="556.09442"
         id="tspan3425" /><tspan
         sodipodi:role="line"
         x="720.23883"
         y="586.09442"
         id="tspan3423" /></text>
    <path
       style="fill:none;fill-rule:evenodd;stroke:#000000;stroke-width:1px;stroke-linecap:butt;stroke-linejoin:miter;stroke-opacity:1"
       d="M 399.01026,612.77465 L 689.93419,393.57155 L 674.7819,382.45987 L 650.53824,423.87612 L 776.80731,410.74414 L 776.80731,410.74414 L 776.80731,407.71368"
       id="path2445" />
    <path
       style="fill:none;fill-rule:evenodd;stroke:#000000;stroke-width:1px;stroke-linecap:butt;stroke-linejoin:miter;stroke-opacity:1"
       d="M 404.06102,632.9777 L 688.92404,528.93199 L 726.29968,517.82031 L 719.22861,514.78985 L 676.80221,532.9726 L 787.91899,416.80506 L 789.93929,417.81521"
       id="path2447" />
  </g>
</svg>
